<svg width="297" height="100" viewBox="0 0 297 100" fill="none" xmlns="http://www.w3.org/2000/svg">
<g clip-path="url(#clip0_2104_11)">
<path d="M22.6278 85V15.1818H51.4688C56.696 15.1818 61.2074 16.2045 65.0028 18.25C68.821 20.2727 71.7642 23.1023 73.8324 26.7386C75.9006 30.3523 76.9347 34.5568 76.9347 39.3523C76.9347 44.1705 75.8778 48.3864 73.7642 52C71.6733 55.5909 68.6847 58.375 64.7983 60.3523C60.9119 62.3295 56.2983 63.3182 50.9574 63.3182H33.1619V50.0227H47.821C50.3665 50.0227 52.4915 49.5795 54.196 48.6932C55.9233 47.8068 57.2301 46.5682 58.1165 44.9773C59.0028 43.3636 59.446 41.4886 59.446 39.3523C59.446 37.1932 59.0028 35.3295 58.1165 33.7614C57.2301 32.1705 55.9233 30.9432 54.196 30.0795C52.4688 29.2159 50.3438 28.7841 47.821 28.7841H39.5028V85H22.6278ZM108.665 85.9886C103.165 85.9886 98.4375 84.8636 94.483 82.6136C90.5511 80.3409 87.517 77.1818 85.3807 73.1364C83.267 69.0682 82.2102 64.3523 82.2102 58.9886C82.2102 53.6023 83.267 48.8864 85.3807 44.8409C87.517 40.7727 90.5511 37.6136 94.483 35.3636C98.4375 33.0909 103.165 31.9545 108.665 31.9545C114.165 31.9545 118.881 33.0909 122.812 35.3636C126.767 37.6136 129.801 40.7727 131.915 44.8409C134.051 48.8864 135.119 53.6023 135.119 58.9886C135.119 64.3523 134.051 69.0682 131.915 73.1364C129.801 77.1818 126.767 80.3409 122.812 82.6136C118.881 84.8636 114.165 85.9886 108.665 85.9886ZM108.767 73.4091C110.767 73.4091 112.46 72.7955 113.847 71.5682C115.233 70.3409 116.29 68.6364 117.017 66.4545C117.767 64.2727 118.142 61.75 118.142 58.8864C118.142 55.9773 117.767 53.4318 117.017 51.25C116.29 49.0682 115.233 47.3636 113.847 46.1364C112.46 44.9091 110.767 44.2955 108.767 44.2955C106.699 44.2955 104.949 44.9091 103.517 46.1364C102.108 47.3636 101.028 49.0682 100.278 51.25C99.5511 53.4318 99.1875 55.9773 99.1875 58.8864C99.1875 61.75 99.5511 64.2727 100.278 66.4545C101.028 68.6364 102.108 70.3409 103.517 71.5682C104.949 72.7955 106.699 73.4091 108.767 73.4091ZM160.33 15.1818V85H143.659V15.1818H160.33ZM187.611 15.1818V85H170.94V15.1818H187.611ZM198.222 85V32.6364H214.892V85H198.222ZM206.574 26.5341C204.233 26.5341 202.222 25.7614 200.54 24.2159C198.858 22.6477 198.017 20.7614 198.017 18.5568C198.017 16.375 198.858 14.5114 200.54 12.9659C202.222 11.3977 204.233 10.6136 206.574 10.6136C208.938 10.6136 210.949 11.3977 212.608 12.9659C214.29 14.5114 215.131 16.375 215.131 18.5568C215.131 20.7614 214.29 22.6477 212.608 24.2159C210.949 25.7614 208.938 26.5341 206.574 26.5341ZM249.946 85.9886C244.446 85.9886 239.719 84.8636 235.764 82.6136C231.832 80.3409 228.798 77.1818 226.662 73.1364C224.548 69.0682 223.491 64.3523 223.491 58.9886C223.491 53.6023 224.548 48.8864 226.662 44.8409C228.798 40.7727 231.832 37.6136 235.764 35.3636C239.719 33.0909 244.446 31.9545 249.946 31.9545C255.446 31.9545 260.162 33.0909 264.094 35.3636C268.048 37.6136 271.082 40.7727 273.196 44.8409C275.332 48.8864 276.401 53.6023 276.401 58.9886C276.401 64.3523 275.332 69.0682 273.196 73.1364C271.082 77.1818 268.048 80.3409 264.094 82.6136C260.162 84.8636 255.446 85.9886 249.946 85.9886ZM250.048 73.4091C252.048 73.4091 253.741 72.7955 255.128 71.5682C256.514 70.3409 257.571 68.6364 258.298 66.4545C259.048 64.2727 259.423 61.75 259.423 58.8864C259.423 55.9773 259.048 53.4318 258.298 51.25C257.571 49.0682 256.514 47.3636 255.128 46.1364C253.741 44.9091 252.048 44.2955 250.048 44.2955C247.98 44.2955 246.23 44.9091 244.798 46.1364C243.389 47.3636 242.31 49.0682 241.56 51.25C240.832 53.4318 240.469 55.9773 240.469 58.8864C240.469 61.75 240.832 64.2727 241.56 66.4545C242.31 68.6364 243.389 70.3409 244.798 71.5682C246.23 72.7955 247.98 73.4091 250.048 73.4091Z" fill="#0D9488"/>
<path d="M244.081 85.3056L225.195 92.9219L231.707 66.9987L244.081 85.3056Z" fill="#0D9488"/>
<ellipse cx="250.5" cy="60" rx="12.5" ry="19" fill="#0D9488"/>
<path d="M259 56.0625L258.502 53.5776C258.211 52.1247 256.935 51.079 255.453 51.079C254.27 51.0997 253.265 51.9497 253.049 53.1125L252.5 56.0625" stroke="white" stroke-width="3" stroke-linecap="round"/>
<path d="M246.586 56.0625L246.088 53.5776C245.797 52.1247 244.521 51.079 243.039 51.079C241.856 51.0997 240.851 51.9497 240.635 53.1125L240.086 56.0625" stroke="white" stroke-width="3" stroke-linecap="round"/>
<path d="M240 66L240.723 67.0794C241.503 68.243 242.506 69.2407 243.673 70.0149C245.016 70.9055 246.545 71.4785 248.142 71.6904L249.09 71.8161C250.01 71.9381 250.942 71.9338 251.861 71.8032L251.959 71.7893C253.89 71.5149 255.696 70.6738 257.149 69.3724C257.567 68.9974 257.953 68.5873 258.302 68.1465L260 66" stroke="white" stroke-width="3" stroke-linecap="round"/>
</g>
<defs>
<clipPath id="clip0_2104_11">
<rect width="297" height="100" fill="white"/>
</clipPath>
</defs>
</svg>
